<?xml version="1.0" standalone="no"?>
<!DOCTYPE svg PUBLIC "-//W3C//DTD SVG 20010904//EN"
 "http://www.w3.org/TR/2001/REC-SVG-20010904/DTD/svg10.dtd">
<svg version="1.0" xmlns="http://www.w3.org/2000/svg"
 width="1024.000000pt" height="1024.000000pt" viewBox="0 0 1024.000000 1024.000000"
 preserveAspectRatio="xMidYMid meet">
<metadata>
Created by potrace 1.16, written by Peter Selinger 2001-2019
</metadata>
<g transform="translate(0.000000,1024.000000) scale(0.100000,-0.100000)"
fill="#000000" stroke="none">
<path d="M1012 9928 c-6 -6 -12 -21 -12 -31 0 -10 -9 -21 -20 -24 -14 -4 -20
-14 -21 -37 -1 -52 -9 -78 -27 -93 -36 -30 -142 -74 -200 -84 -56 -10 -65 -9
-98 10 -20 12 -41 18 -45 14 -18 -18 40 -81 101 -111 70 -35 95 -58 95 -86 0
-13 9 -22 25 -26 23 -5 25 -11 25 -55 l0 -50 -92 0 c-99 0 -114 -9 -68 -39 14
-9 25 -21 25 -26 0 -19 -51 -10 -88 15 -20 14 -40 25 -44 25 -5 0 -8 -38 -8
-84 0 -80 1 -85 29 -108 15 -14 34 -41 41 -62 7 -23 23 -45 41 -55 24 -14 29
-23 31 -66 3 -43 6 -50 28 -55 l25 -6 3 -276 c2 -270 2 -277 -18 -283 -14 -4
-20 -15 -20 -34 0 -24 -5 -30 -30 -34 -19 -4 -30 -13 -31 -24 -5 -62 -4 -76 6
-86 7 -9 111 -11 393 -9 l382 2 0 54 c0 52 -1 55 -30 61 -24 5 -30 12 -30 33
0 16 -8 32 -20 40 -19 12 -20 23 -20 286 l0 275 28 3 c25 3 27 7 30 53 3 45 7
52 37 73 25 15 35 30 35 47 0 15 14 40 35 62 34 36 35 40 35 115 0 89 -8 96
-64 53 -32 -24 -76 -34 -76 -16 0 5 12 16 26 25 46 31 25 41 -74 37 l-92 -3 0
56 c0 56 0 56 30 56 27 0 30 3 30 33 0 32 4 36 75 71 77 39 115 74 115 108 0
19 -1 19 -25 4 -54 -36 -189 -14 -287 47 -39 23 -48 34 -48 57 0 54 -12 90
-30 90 -11 0 -21 12 -26 33 -8 26 -15 33 -39 35 -17 2 -36 -3 -43 -10z m50
-53 c-3 -20 0 -24 24 -27 27 -3 29 -6 26 -43 -4 -56 25 -90 112 -131 68 -31
172 -57 188 -47 5 2 8 0 8 -6 0 -13 -40 -41 -60 -41 -8 0 -27 -7 -42 -14 -42
-22 -505 -23 -533 -2 -11 9 -30 16 -42 16 -12 0 -25 5 -28 11 -4 6 -17 14 -28
18 -17 6 -9 10 38 19 80 14 164 46 213 82 38 27 41 33 44 82 3 50 5 53 31 56
24 3 28 7 23 26 -6 26 0 37 18 30 8 -3 11 -15 8 -29z m113 -354 l60 -1 -3 -85
-3 -85 -175 0 c-96 0 -177 -1 -181 -2 -5 -2 -9 36 -10 84 l-3 87 58 3 c31 2
89 2 127 1 39 -1 97 -2 130 -2z m-340 -11 c3 -5 1 -10 -4 -10 -6 0 -11 5 -11
10 0 6 2 10 4 10 3 0 8 -4 11 -10z m455 -10 c0 -5 -7 -10 -15 -10 -8 0 -15 5
-15 10 0 6 7 10 15 10 8 0 15 -4 15 -10z m60 -185 c0 -2 -15 -12 -32 -21 -28
-15 -69 -17 -267 -18 -202 -1 -239 1 -272 16 -22 9 -39 19 -39 23 0 3 137 5
305 5 168 0 305 -2 305 -5z m160 -49 c0 -15 -18 -31 -26 -23 -7 7 7 37 17 37
5 0 9 -6 9 -14z m-905 -4 c14 -10 17 -32 5 -32 -5 0 -14 9 -20 20 -11 20 -4
26 15 12z m183 -7 c2 -1 0 -14 -4 -29 -7 -31 -24 -25 -24 9 0 13 -6 26 -12 29
-7 3 -2 3 12 0 14 -4 26 -8 28 -9z m572 7 c0 -5 -9 -17 -19 -26 -11 -10 -22
-28 -24 -40 -2 -12 -5 -5 -6 16 -1 26 4 40 17 47 21 13 32 14 32 3z m-630 -32
c12 -23 6 -40 -16 -40 -10 0 -14 -13 -14 -50 0 -46 2 -50 28 -56 39 -10 43
-13 33 -33 -7 -13 -19 -16 -46 -13 -52 6 -65 31 -65 129 l0 83 35 0 c24 0 37
-6 45 -20z m130 10 c0 -5 -7 -10 -16 -10 -13 0 -15 -10 -12 -55 3 -62 -5 -70
-73 -63 -29 2 -34 7 -34 28 0 19 6 26 24 28 13 2 28 -1 34 -7 20 -20 27 -11
27 33 0 34 4 46 18 49 29 8 32 7 32 -3z m64 4 c11 -4 16 -19 16 -50 0 -56 -18
-58 -22 -2 -2 35 -7 43 -28 49 -23 6 -23 7 -3 8 12 1 28 -2 37 -5z m70 -10 c7
-19 -3 -64 -15 -64 -5 0 -9 18 -9 40 0 40 13 53 24 24z m66 1 c0 -8 -7 -15
-15 -15 -8 0 -15 7 -15 15 0 8 7 15 15 15 8 0 15 -7 15 -15z m70 -29 c0 -37
-6 -47 -26 -39 -13 5 -12 26 2 71 7 24 24 2 24 -32z m99 33 c-8 -5 -22 -9 -31
-9 -14 0 -18 -8 -18 -35 0 -19 -4 -35 -10 -35 -5 0 -10 20 -10 44 l0 45 41 -1
c27 0 37 -3 28 -9z m56 -45 c0 -38 4 -49 18 -52 10 -2 17 3 17 13 0 11 7 15
23 13 16 -2 23 -11 25 -30 3 -27 2 -28 -45 -28 -58 1 -92 20 -68 40 17 14 19
47 6 70 -11 17 -4 33 12 27 7 -2 12 -24 12 -53z m162 -35 c-3 -49 -11 -97 -17
-105 -11 -12 -90 -21 -90 -10 0 2 -3 11 -6 20 -5 13 1 16 25 16 17 0 31 1 32
3 0 1 3 23 6 49 5 45 3 48 -22 58 -26 10 -26 10 -8 35 13 17 28 24 52 25 l34
0 -6 -91z m-557 37 c0 -8 -5 -18 -11 -22 -14 -8 -33 11 -25 25 10 16 36 13 36
-3z m348 -9 c2 -10 -3 -17 -12 -17 -10 0 -16 9 -16 21 0 24 23 21 28 -4z m262
-7 c-6 -12 -14 -19 -17 -17 -2 3 1 15 7 27 6 12 14 19 17 17 2 -3 -1 -15 -7
-27z m-880 -16 c0 -3 -7 -1 -15 6 -8 7 -15 17 -15 22 0 5 7 3 15 -6 8 -8 15
-18 15 -22z m435 16 c3 -5 -1 -10 -9 -10 -9 0 -16 5 -16 10 0 6 4 10 9 10 6 0
13 -4 16 -10z m110 -61 c81 -25 145 -65 145 -90 0 -12 10 -21 25 -25 20 -5 25
-12 25 -39 0 -27 -4 -34 -22 -37 l-23 -3 -3 -292 -2 -293 -260 0 -260 0 -2 68
c-1 37 -3 146 -4 242 -2 286 -1 269 -29 280 -19 7 -25 17 -25 39 0 21 5 28 16
27 9 0 24 12 33 28 23 40 56 63 131 90 84 31 168 32 255 5z m163 -815 c12 -4
22 -13 22 -20 0 -12 -51 -14 -300 -14 -253 0 -300 2 -300 14 0 8 8 17 18 19
26 7 534 8 560 1z m82 -99 l0 -35 -355 0 -355 0 -10 26 c-6 14 -8 30 -4 35 3
5 158 9 365 9 l359 0 0 -35z"/>
<path d="M942 9653 c3 -16 17 -18 106 -21 97 -3 102 -2 102 18 0 19 -6 20
-106 20 -95 0 -105 -2 -102 -17z"/>
<path d="M840 9605 c0 -13 29 -15 205 -15 176 0 205 2 205 15 0 13 -29 15
-205 15 -176 0 -205 -2 -205 -15z"/>
<path d="M892 9428 c3 -50 5 -53 31 -56 36 -4 57 13 57 48 0 50 -9 60 -52 60
l-39 0 3 -52z m56 -1 c2 -19 -1 -27 -12 -27 -11 0 -16 10 -16 31 0 38 24 35
28 -4z"/>
<path d="M1005 9468 c-2 -7 -3 -31 -2 -53 2 -39 3 -40 43 -43 l42 -3 4 43 c6
60 1 68 -43 68 -23 0 -41 -5 -44 -12z m58 -20 c6 -20 -4 -49 -16 -45 -9 3 -13
29 -8 52 2 10 19 5 24 -7z"/>
<path d="M1122 9428 c3 -50 5 -53 31 -56 39 -5 57 13 53 52 -2 17 -4 37 -5 44
-1 7 -16 12 -42 12 l-40 0 3 -52z m53 2 c0 -13 -6 -25 -12 -27 -9 -3 -13 6
-13 27 0 21 4 30 13 28 6 -3 12 -15 12 -28z"/>
<path d="M852 8918 c-9 -9 -12 -83 -12 -270 l0 -258 50 0 c33 0 50 4 50 13 3
64 -2 512 -5 515 -11 11 -72 11 -83 0z m58 -263 c0 -228 -1 -235 -20 -235 -19
0 -20 7 -20 235 0 228 1 235 20 235 19 0 20 -7 20 -235z"/>
<path d="M1005 8920 c-4 -7 -8 -349 -5 -517 0 -9 17 -13 50 -13 33 0 50 4 50
13 3 100 -2 487 -6 504 -5 19 -13 23 -44 23 -22 0 -41 -4 -45 -10z m55 -29 c0
-5 2 -16 5 -23 4 -9 -2 -14 -15 -14 -14 0 -20 7 -20 23 0 14 6 23 15 23 8 0
15 -4 15 -9z m10 -277 c0 -183 -1 -194 -19 -194 -17 0 -19 13 -26 159 -4 88
-4 175 0 193 8 34 23 51 37 42 4 -3 8 -93 8 -200z"/>
<path d="M1170 8921 c-14 -8 -15 -44 -12 -263 2 -139 7 -257 11 -261 5 -5 26
-7 47 -5 l39 3 3 254 c1 140 -2 259 -6 263 -14 14 -65 19 -82 9z m58 -264 c2
-226 1 -237 -16 -237 -17 0 -20 11 -26 92 -8 121 -8 373 1 382 4 4 14 5 23 4
13 -3 15 -36 18 -241z"/>
<path d="M8620 9180 c-119 -44 -199 -121 -241 -231 -15 -39 -20 -87 -24 -241
-6 -259 -7 -245 14 -287 21 -40 64 -67 123 -76 20 -3 39 -12 42 -20 3 -8 1
-15 -4 -15 -17 0 -11 -69 10 -107 11 -21 20 -49 20 -64 0 -49 80 -90 107 -54
11 16 13 17 13 3 0 -20 5 -24 47 -32 21 -5 35 -3 44 7 12 12 15 12 27 0 18
-17 71 -8 90 15 11 14 14 15 21 3 6 -10 19 -12 45 -7 38 7 56 29 56 70 0 14
10 44 21 66 17 32 20 51 16 85 l-7 44 38 6 c66 11 100 32 123 76 18 36 20 53
15 113 -3 39 -7 141 -8 226 -3 144 -5 159 -30 212 -37 80 -107 152 -186 190
-61 30 -73 33 -191 35 -107 3 -134 0 -181 -17z m364 -50 c78 -39 128 -91 165
-169 24 -52 26 -68 28 -206 2 -82 6 -180 9 -216 10 -105 -32 -162 -118 -161
-33 1 -50 -6 -85 -35 -29 -24 -43 -43 -43 -59 0 -21 5 -24 40 -24 46 0 47 -3
20 -48 -11 -18 -20 -46 -20 -62 0 -18 -7 -33 -19 -39 -23 -13 -31 -5 -31 28 0
43 -14 57 -44 43 -22 -10 -26 -18 -26 -52 0 -33 -3 -40 -20 -40 -15 0 -20 7
-20 28 0 36 -22 67 -43 59 -10 -4 -17 -21 -19 -49 -2 -36 -7 -44 -25 -46 -20
-3 -23 1 -25 30 0 18 -2 39 -2 46 -2 18 -31 33 -50 26 -10 -4 -16 -18 -16 -38
0 -40 -7 -48 -31 -35 -12 6 -19 21 -19 42 0 18 -7 41 -15 51 -25 33 -19 51 18
51 28 0 32 3 30 25 -4 40 -63 84 -132 98 -44 9 -66 20 -80 39 -30 37 -43 92
-31 133 6 19 10 103 10 187 0 178 14 231 81 307 85 96 168 127 331 123 109 -3
120 -5 182 -37z m-406 -838 c2 -7 -2 -10 -12 -6 -9 3 -16 11 -16 16 0 13 23 5
28 -10z m432 9 c0 -5 -7 -11 -15 -15 -15 -5 -20 5 -8 17 9 10 23 9 23 -2z"/>
<path d="M9042 8920 c1 -13 9 -25 16 -28 17 -5 15 23 -4 39 -14 11 -15 10 -12
-11z"/>
<path d="M8425 8829 c-9 -24 -1 -144 10 -144 13 0 19 135 6 148 -7 7 -12 6
-16 -4z"/>
<path d="M9108 8834 c-6 -6 7 -62 17 -72 3 -3 5 13 5 36 0 39 -8 51 -22 36z"/>
<path d="M9114 8726 c-8 -21 3 -49 16 -41 5 3 10 15 10 25 0 25 -18 36 -26 16z"/>
<path d="M8472 8618 c-16 -16 -15 -55 4 -110 22 -65 40 -78 111 -79 87 -1 146
33 130 75 -3 8 -32 29 -64 44 -32 16 -76 41 -97 55 -42 29 -65 34 -84 15z m76
-49 c24 -17 62 -39 86 -48 24 -9 45 -20 47 -26 7 -16 -44 -35 -97 -35 l-52 0
-21 49 c-21 51 -27 91 -13 91 4 0 27 -14 50 -31z"/>
<path d="M9016 8607 c-16 -12 -59 -38 -95 -57 -36 -19 -67 -43 -69 -52 -2 -10
9 -29 24 -43 24 -22 36 -25 98 -25 39 0 76 4 82 8 13 8 44 93 49 137 8 56 -36
72 -89 32z m54 -39 c0 -13 -9 -42 -20 -65 l-19 -43 -59 0 c-53 0 -82 11 -82
33 0 4 24 19 53 32 28 13 66 33 82 44 38 26 45 26 45 -1z"/>
<path d="M8737 8390 c-30 -35 -43 -69 -30 -80 11 -11 125 -16 141 -7 19 12 14
39 -13 80 -32 46 -63 49 -98 7z m79 -35 c12 -19 11 -20 -26 -23 -42 -3 -52 12
-28 36 17 17 38 11 54 -13z"/>
<path d="M8886 8323 c-8 -21 10 -41 24 -27 11 11 3 44 -10 44 -4 0 -11 -8 -14
-17z"/>
<path d="M5427 8344 c-10 -20 -44 -80 -77 -134 -128 -214 -160 -294 -160 -408
0 -75 30 -142 85 -191 51 -44 76 -52 175 -54 71 -1 93 2 133 22 129 63 172
238 102 414 -15 37 -62 125 -105 196 -42 71 -83 143 -90 160 -17 41 -42 39
-63 -5z m118 -156 c132 -221 163 -322 135 -438 -15 -61 -66 -125 -118 -147
-19 -8 -68 -14 -113 -14 -68 0 -87 4 -124 25 -119 70 -137 222 -48 400 37 75
176 306 183 306 4 0 42 -59 85 -132z"/>
<path d="M5275 7870 c-4 -6 -9 -34 -12 -63 -9 -86 46 -167 113 -167 42 0 46
25 8 61 -36 34 -61 78 -69 121 -8 41 -29 66 -40 48z m64 -157 c18 -24 30 -43
26 -43 -20 0 -48 26 -61 55 -26 62 -21 60 35 -12z"/>
<path d="M3016 8258 c-12 -29 -44 -85 -69 -125 -150 -233 -195 -405 -135 -520
27 -54 91 -107 146 -123 109 -30 243 2 294 71 53 70 62 99 62 189 0 72 -5 98
-34 170 -18 47 -59 126 -90 175 -32 50 -71 118 -89 153 -17 34 -38 62 -46 62
-9 0 -25 -23 -39 -52z m133 -156 c110 -186 123 -221 129 -329 4 -86 2 -97 -23
-148 -20 -42 -37 -61 -73 -83 -41 -24 -57 -27 -132 -27 -71 0 -92 4 -127 24
-88 51 -120 144 -93 274 12 59 96 233 150 311 16 25 30 47 30 50 0 4 10 22 23
41 27 42 22 46 116 -113z"/>
<path d="M2872 7798 c-20 -20 -15 -126 9 -168 26 -45 71 -74 105 -66 33 9 30
24 -12 70 -43 48 -60 80 -69 129 -8 42 -17 51 -33 35z m66 -162 c34 -47 34
-53 1 -36 -19 11 -49 59 -49 80 0 17 12 6 48 -44z"/>
<path d="M7569 7812 c-20 -37 -66 -119 -103 -182 -82 -142 -105 -203 -113
-299 -5 -65 -2 -84 17 -129 25 -57 71 -104 127 -127 48 -20 182 -20 231 1 83
34 142 126 150 235 8 110 -22 187 -168 429 -31 52 -60 105 -64 118 -13 40 -39
25 -77 -46z m66 1 c3 -10 42 -79 85 -153 44 -74 89 -162 101 -195 49 -136 18
-282 -72 -342 -39 -26 -50 -28 -133 -28 -114 0 -157 19 -201 90 -27 43 -30 57
-29 124 0 99 23 159 123 330 44 75 85 148 92 164 14 31 24 34 34 10z"/>
<path d="M7431 7357 c-15 -39 -14 -101 3 -142 16 -38 68 -75 104 -75 40 0 36
27 -12 81 -32 35 -48 63 -52 90 -4 21 -12 47 -19 56 -13 17 -14 16 -24 -10z
m88 -186 c-16 -5 -47 28 -58 62 -10 31 -9 31 29 -13 22 -25 35 -47 29 -49z"/>
<path d="M2276 7454 c-59 -103 -118 -219 -132 -260 -50 -149 -22 -271 80 -343
46 -33 55 -35 141 -39 79 -4 97 -1 136 18 60 30 86 56 117 115 24 44 27 61 27
145 0 85 -4 103 -33 172 -19 43 -58 117 -88 165 -30 48 -69 116 -86 151 -18
34 -38 62 -44 62 -6 0 -60 -84 -118 -186z m192 9 c120 -203 152 -282 152 -372
0 -175 -109 -267 -292 -246 -50 6 -67 13 -101 44 -113 102 -101 240 45 493 39
67 81 140 92 160 12 21 24 38 28 38 4 0 38 -53 76 -117z"/>
<path d="M2196 7108 c-11 -42 -6 -107 10 -142 22 -44 85 -82 114 -66 28 15 25
27 -19 75 -24 26 -46 64 -57 99 -18 58 -37 72 -48 34z m77 -143 c32 -39 34
-50 7 -35 -24 13 -45 45 -54 80 -6 23 -5 23 6 6 7 -11 25 -34 41 -51z"/>
<path d="M2718 7135 c-1 -107 -3 -232 -3 -277 l0 -83 41 -3 41 -3 6 265 c4
145 4 271 1 280 -4 11 -19 16 -45 16 l-39 0 -2 -195z m62 -90 c0 -248 -1 -255
-20 -255 -19 0 -20 7 -20 255 0 248 1 255 20 255 19 0 20 -7 20 -255z"/>
<path d="M2845 7277 c-3 -7 -4 -123 -3 -257 l3 -245 258 -3 c248 -2 259 -2
264 17 6 25 30 31 130 31 45 0 84 4 87 9 6 10 -196 414 -222 444 -14 15 -39
17 -264 17 -192 0 -250 -3 -253 -13z m602 -217 c56 -107 102 -201 103 -207 0
-10 -26 -13 -100 -13 -55 0 -100 -4 -100 -9 0 -5 -7 -17 -16 -25 -13 -14 -49
-16 -240 -16 l-224 0 0 174 c0 95 -3 188 -6 205 -6 27 -4 31 15 31 20 0 21 -4
23 -187 l3 -188 180 -3 c200 -3 223 0 221 25 -1 16 10 18 89 21 49 2 93 6 98
11 4 4 -1 23 -11 42 -11 19 -52 96 -92 172 l-73 137 -223 0 c-194 0 -224 2
-224 15 0 13 31 15 238 13 l237 -3 102 -195z m-121 95 c15 -27 52 -94 82 -148
30 -54 52 -100 50 -102 -3 -3 -31 -5 -64 -6 -88 0 -114 -7 -114 -30 0 -18 -9
-19 -181 -19 l-182 0 6 173 c3 94 6 173 7 174 1 5 106 8 232 8 l138 0 26 -50z"/>
<path d="M3123 7182 c-6 -4 -13 -28 -15 -52 l-3 -45 -50 -5 c-39 -4 -50 -9
-49 -22 0 -10 1 -34 2 -53 2 -34 3 -35 46 -35 50 0 63 -11 68 -60 l3 -35 55 0
55 0 3 48 3 47 43 0 c52 0 68 15 62 61 -3 19 -5 39 -5 46 -1 7 -22 13 -53 15
l-53 3 -5 45 -5 45 -45 2 c-25 1 -50 -1 -57 -5z m83 -69 l9 -48 48 -3 c39 -3
47 -6 47 -23 0 -10 1 -22 3 -26 1 -5 -20 -10 -48 -13 l-50 -5 -3 -47 c-3 -45
-5 -48 -32 -48 -27 0 -29 3 -32 43 l-3 42 -55 5 c-54 5 -55 6 -58 38 l-3 32
50 0 51 0 0 50 0 50 34 0 c33 0 34 -2 42 -47z"/>
<path d="M6747 6986 c-14 -30 -58 -107 -96 -171 -129 -214 -160 -359 -102
-473 43 -85 119 -125 236 -126 137 0 215 56 251 183 33 110 7 224 -86 381 -27
47 -71 124 -97 172 -28 51 -54 88 -63 88 -9 0 -27 -23 -43 -54z m126 -133
c135 -227 166 -332 133 -446 -19 -65 -65 -124 -113 -143 -18 -8 -68 -14 -116
-14 -76 0 -88 3 -128 30 -68 44 -94 98 -93 190 1 97 34 182 135 351 42 68 78
132 82 142 3 9 10 17 16 17 5 0 43 -57 84 -127z"/>
<path d="M6607 6533 c-16 -27 -17 -113 -2 -151 27 -67 89 -101 134 -73 17 11
0 45 -29 61 -23 12 -53 68 -69 128 -11 39 -24 52 -34 35z m67 -170 c16 -18 26
-36 22 -40 -10 -10 -47 29 -62 64 -17 39 -17 55 -1 29 7 -11 25 -34 41 -53z"/>
<path d="M4796 6094 c-3 -9 -6 -26 -6 -39 0 -15 -7 -26 -20 -30 -20 -6 -20
-15 -20 -454 0 -247 -3 -468 -6 -493 -6 -42 -15 -53 -144 -176 l-137 -131 -82
-2 c-93 -2 -95 -4 -89 -95 l3 -49 98 -3 97 -3 0 -142 c0 -78 -3 -152 -6 -164
-6 -22 -10 -23 -183 -25 l-176 -3 -3 -120 c-3 -121 2 -170 17 -161 4 3 171 6
371 7 259 1 365 -2 368 -10 3 -8 -107 -11 -390 -12 -216 -1 -422 -4 -458 -8
-64 -6 -65 -6 -68 -38 -2 -17 -10 -37 -18 -43 -16 -14 -19 -66 -4 -75 11 -7
989 -14 1008 -8 14 6 17 89 2 98 -5 3 -10 19 -10 35 0 20 -6 31 -19 35 -18 6
-20 16 -20 131 l-1 124 205 1 c113 1 215 2 228 2 22 1 22 -1 22 -115 0 -64 2
-118 5 -120 3 -1 176 -1 385 2 l380 5 0 135 0 135 -177 3 -178 2 0 165 0 165
95 0 95 0 0 64 c0 41 -5 68 -12 73 -7 4 -47 9 -88 9 l-75 1 -137 139 -138 139
0 487 0 487 -22 3 c-19 2 -24 11 -28 43 l-5 40 -75 0 -75 0 -3 -587 c-2 -583
-2 -588 18 -588 11 0 28 -8 39 -17 10 -10 71 -65 135 -122 l116 -105 0 -168 0
-168 -482 2 -483 3 -3 162 -2 162 52 48 c29 26 90 83 135 126 58 53 91 77 108
77 l25 0 0 574 c0 316 -3 581 -6 590 -5 13 -22 16 -79 16 -57 0 -74 -3 -79
-16z m128 -13 c4 -5 -12 -7 -36 -4 -57 8 -61 13 -10 13 22 0 43 -4 46 -9z
m-73 -38 c2 3 21 7 42 11 33 6 37 5 37 -14 0 -19 -5 -21 -45 -19 -24 2 -48 0
-52 -5 -12 -12 19 -26 60 -26 l37 0 0 -490 c0 -269 -2 -490 -5 -490 -3 0 -16
7 -29 15 -23 15 -25 15 -46 -20 -12 -19 -68 -74 -125 -121 -100 -84 -103 -87
-107 -132 -8 -79 -3 -406 5 -419 6 -10 120 -13 513 -13 l504 0 0 238 -1 237
-80 65 c-45 36 -104 91 -133 122 -49 53 -54 57 -72 43 -10 -8 -22 -15 -26 -15
-4 0 -6 222 -5 493 l2 492 42 -3 c22 -2 44 1 47 6 3 5 19 7 36 4 l30 -4 0
-482 0 -481 147 -147 147 -148 71 0 c39 0 75 -3 78 -6 3 -4 2 -15 -4 -26 -7
-13 -16 -17 -30 -13 -14 5 -19 2 -19 -11 0 -13 7 -16 35 -11 30 5 35 3 35 -14
0 -18 -8 -19 -100 -19 l-100 0 2 -187 3 -188 140 -2 c77 -1 157 -2 178 -3 l37
0 0 -80 0 -80 -360 0 -360 0 0 85 0 85 -250 0 -249 0 -3 -82 -3 -83 -362 -3
-363 -2 0 80 0 80 180 0 180 0 2 83 c3 104 -3 290 -9 297 -2 2 -45 5 -96 7
-76 2 -93 5 -95 18 -3 13 3 16 25 13 34 -4 40 25 6 30 -13 2 -23 10 -23 18 0
11 17 14 78 14 l77 0 148 144 147 144 0 486 0 486 25 0 c23 0 25 4 25 43 1 39
2 41 13 19 7 -12 15 -21 18 -19z m527 30 c-35 -5 -37 -23 -3 -23 16 0 25 -6
25 -15 0 -11 -11 -15 -40 -15 -41 0 -47 9 -34 44 4 11 18 16 43 15 30 -2 31
-3 9 -6z m60 -17 c2 -10 0 -22 -6 -28 -6 -6 -11 1 -14 22 -5 32 14 38 20 6z
m-523 -1069 c17 -13 13 -43 -4 -32 -8 4 -100 -76 -208 -182 -29 -29 -56 -53
-58 -53 -3 0 -5 13 -5 30 0 24 13 40 83 98 45 38 100 87 122 110 46 47 45 46
70 29z m476 -11 c10 -13 63 -61 119 -106 84 -70 100 -88 100 -112 0 -15 -3
-28 -6 -28 -4 0 -62 52 -129 115 -68 63 -128 115 -134 115 -14 0 -14 13 1 28
17 17 28 15 49 -12z m-515 -909 c4 -4 5 -9 3 -11 -2 -2 -166 -6 -363 -7 -272
-3 -360 -1 -363 8 -3 9 27 13 109 16 196 6 606 2 614 -6z m1052 7 c295 -11
192 -24 -188 -24 -317 0 -373 3 -356 21 8 7 368 10 544 3z m-1010 -142 l3 -22
-467 2 c-363 2 -468 6 -472 16 -2 6 7 16 20 21 12 4 223 8 468 7 l445 -2 3
-22z m17 -72 c0 -13 -62 -15 -487 -18 -484 -2 -488 -2 -488 18 0 20 4 20 488
18 425 -3 487 -5 487 -18z"/>
<path d="M5100 6016 c0 -37 -13 -48 -24 -21 -12 34 -41 11 -59 -47 -3 -9 -7
-243 -8 -520 l-2 -503 118 2 118 1 -2 507 c-1 279 -6 514 -11 523 -5 9 -11 25
-14 35 -8 24 -33 21 -43 -5 -6 -20 -8 -17 -13 17 -4 35 -9 40 -32 43 -26 3
-28 1 -28 -32z m40 -36 c0 -36 3 -40 24 -40 13 0 27 6 29 13 3 6 6 2 6 -10 1
-22 -2 -23 -79 -23 -73 0 -80 2 -80 20 0 11 5 20 10 20 6 0 10 -4 10 -10 0 -5
14 -10 30 -10 28 0 30 2 30 40 0 22 5 40 10 40 6 0 10 -18 10 -40z m80 -525
l0 -435 -88 0 -89 0 -6 128 c-9 180 -9 454 -1 610 l7 132 88 0 89 0 0 -435z
m8 -482 c-3 -15 -17 -18 -101 -21 -92 -3 -97 -2 -97 18 0 19 6 20 101 20 90 0
100 -2 97 -17z"/>
<path d="M5087 5755 c-16 -11 -17 -42 -17 -364 l0 -352 57 3 57 3 -2 354 c0
194 -2 354 -4 356 -13 10 -77 11 -91 0z m71 -352 l2 -333 -35 0 -35 0 0 316
c0 204 4 322 11 335 6 13 18 19 32 17 l22 -3 3 -332z"/>
<path d="M8096 5724 c-9 -8 -16 -21 -16 -28 0 -7 -32 -66 -71 -132 -138 -231
-164 -297 -163 -409 0 -61 5 -89 21 -120 46 -87 128 -134 234 -135 115 0 193
43 242 135 19 34 22 56 22 140 -1 117 -14 158 -100 305 -30 52 -73 130 -95
172 -22 42 -44 79 -49 82 -5 4 -17 -1 -25 -10z m118 -217 c121 -215 149 -320
111 -426 -37 -106 -98 -146 -220 -146 -70 0 -86 4 -127 28 -107 63 -132 184
-70 342 17 44 61 130 98 190 36 61 74 127 85 149 24 46 13 58 123 -137z"/>
<path d="M7915 5175 c-8 -61 11 -129 43 -158 24 -22 69 -38 87 -31 23 9 18 32
-18 74 -40 47 -53 71 -67 128 -16 61 -37 55 -45 -13z m83 -126 c18 -22 20 -29
9 -29 -21 0 -57 48 -56 74 0 20 1 20 12 2 7 -10 23 -32 35 -47z"/>
<path d="M2091 5013 c-18 -38 -53 -99 -76 -138 -121 -194 -169 -362 -132 -462
22 -58 73 -119 119 -141 35 -18 63 -22 134 -22 82 0 94 3 136 29 84 53 128
138 128 246 0 96 -35 184 -157 390 -39 66 -74 130 -77 143 -13 42 -40 26 -75
-45z m129 -121 c41 -70 90 -163 110 -207 31 -70 35 -90 35 -160 0 -70 -4 -87
-31 -135 -24 -44 -41 -60 -84 -82 -90 -47 -215 -36 -277 24 -115 109 -93 257
80 542 37 59 69 117 72 127 4 11 9 19 13 19 4 -1 41 -58 82 -128z"/>
<path d="M1946 4539 c-10 -54 -7 -91 14 -134 23 -48 70 -80 106 -71 33 9 31
36 -7 72 -35 33 -63 84 -74 132 -8 41 -31 42 -39 1z m72 -133 c18 -25 28 -46
22 -46 -12 0 -60 48 -60 61 0 4 -3 15 -7 25 -10 27 9 10 45 -40z"/>
<path d="M4920 4789 c-47 -22 -118 -57 -157 -77 l-73 -36 0 -142 c0 -79 4
-145 9 -148 5 -3 199 -6 432 -6 l424 -1 3 146 3 145 -38 23 c-21 12 -94 48
-162 79 l-124 58 -116 0 c-114 -1 -117 -1 -201 -41z m371 -11 c30 -12 98 -44
152 -71 l98 -48 -3 -127 -3 -127 -265 -3 c-146 -2 -329 0 -408 3 l-143 7 3
125 3 126 135 68 135 68 121 1 c103 0 130 -3 175 -22z"/>
<path d="M4873 4715 l-133 -65 0 -113 0 -112 382 3 c272 3 385 7 390 15 4 6 6
54 5 105 -3 112 2 107 -169 182 l-116 50 -113 0 -114 0 -132 -65z m479 -14
c65 -30 122 -59 127 -65 10 -11 15 -74 12 -148 l-1 -38 -365 0 -366 0 3 93 3
92 125 63 125 63 110 -3 c109 -4 111 -4 227 -57z"/>
<path d="M4308 4603 c-88 -4 -79 8 -96 -120 -6 -41 -17 -79 -26 -88 -9 -9 -16
-30 -16 -46 0 -27 2 -29 43 -30 23 0 78 -2 122 -5 109 -7 125 -2 125 41 0 18
-4 37 -10 40 -5 3 -10 44 -10 91 0 71 -3 87 -20 104 -11 11 -23 19 -27 18 -5
-1 -43 -4 -85 -5z m100 -115 l3 -88 -91 0 -92 0 6 28 c3 15 8 55 12 90 l6 63
77 -3 76 -3 3 -87z m22 -128 c0 -19 -7 -20 -115 -20 -89 0 -115 3 -115 13 0
24 12 27 122 27 101 0 108 -1 108 -20z"/>
<path d="M5822 4596 c-3 -6 -10 -60 -14 -121 -11 -148 -11 -147 2 -155 6 -4
66 -5 133 -4 67 2 128 4 135 4 17 0 15 20 -8 65 -11 22 -27 77 -34 123 -7 45
-15 84 -17 86 -11 10 -191 11 -197 2z m184 -72 c6 -29 14 -68 18 -88 l7 -36
-96 0 -95 0 0 83 c0 46 3 87 7 91 4 4 39 5 77 4 l71 -3 11 -51z m52 -166 c3
-16 -8 -18 -117 -18 -94 0 -121 3 -121 13 0 25 14 28 124 25 96 -3 111 -5 114
-20z"/>
<path d="M1387 4063 c-4 -3 -7 -102 -7 -219 l0 -213 -37 -3 c-36 -3 -38 -5
-41 -40 l-3 -37 -77 -3 -77 -3 -5 -80 c-4 -72 -7 -80 -25 -80 -15 0 -21 8 -23
33 l-3 33 -62 -3 -62 -3 1 -85 c0 -47 1 -174 2 -282 l2 -198 190 0 190 0 0
160 0 160 110 0 110 0 1 -77 c3 -157 9 -237 18 -242 5 -3 86 -5 180 -3 l171 3
0 285 0 285 -62 -3 c-63 -3 -63 -3 -66 -35 -2 -25 -8 -33 -23 -33 -17 0 -19 7
-19 69 0 99 -2 101 -71 101 -56 0 -59 1 -59 24 0 44 -10 56 -46 56 l-34 0 0
80 0 79 107 3 c68 2 108 7 110 14 2 7 -23 34 -56 60 -33 27 -60 51 -59 54 0 3
28 30 63 60 102 89 100 90 -133 90 -109 0 -202 -3 -205 -7z m353 -22 c0 -5
-24 -30 -52 -56 -29 -26 -56 -53 -60 -60 -5 -8 11 -27 48 -55 73 -55 62 -61
-93 -58 l-118 3 -5 -100 c-4 -89 -8 -105 -33 -142 -16 -22 -42 -47 -58 -54
-36 -14 -26 -30 14 -22 18 4 33 16 44 36 13 27 16 28 25 13 5 -10 7 -28 4 -42
-6 -22 -12 -24 -64 -25 -31 -1 -63 -1 -70 0 -8 1 -19 -3 -27 -9 -10 -8 -14 -5
-17 14 -4 20 0 25 24 30 25 5 28 10 28 45 0 39 1 40 38 43 l37 3 3 223 2 222
165 0 c92 0 165 -4 165 -9z m-208 -343 l3 -93 35 -5 c32 -5 35 -8 40 -45 l5
-40 63 3 62 4 0 -86 0 -86 49 0 c52 0 61 8 61 56 0 18 5 24 23 24 44 0 47 -12
47 -226 0 -124 -4 -204 -10 -206 -5 -1 -77 -2 -160 0 l-150 3 0 115 0 115
-137 -3 -138 -3 -5 -160 -5 -160 -156 -3 -156 -2 -6 252 c-4 139 -3 256 2 261
5 5 21 7 37 5 25 -3 29 -8 32 -36 3 -33 4 -33 50 -30 l47 3 5 80 c5 74 7 80
28 83 26 4 28 -9 6 -43 -11 -17 -13 -29 -6 -38 5 -6 15 -29 21 -49 16 -48 35
-48 60 0 28 55 39 61 121 64 l75 3 3 168 2 167 25 0 c24 0 24 -2 27 -92z
m-282 -248 c0 -5 7 -7 17 -3 14 6 14 2 -3 -26 -16 -27 -20 -29 -26 -14 -10 27
-9 53 2 53 6 0 10 -4 10 -10z m663 -492 c6 -19 -3 -46 -16 -50 -7 -2 -74 -2
-149 0 -125 3 -138 5 -143 22 -4 11 -3 24 0 30 10 16 302 13 308 -2z"/>
<path d="M1563 4012 l-93 -3 0 -79 0 -80 90 0 c53 0 90 4 90 10 0 6 -33 10
-78 10 -43 0 -81 2 -83 4 -2 2 -2 29 -1 60 l4 56 89 0 c49 0 89 4 89 9 0 15
-9 16 -107 13z"/>
<path d="M1862 3278 c4 -46 28 -49 28 -4 0 26 -4 36 -16 36 -11 0 -14 -8 -12
-32z"/>
<path d="M5332 3983 c-18 -4 -23 -10 -21 -31 1 -15 -3 -40 -10 -57 -7 -16 -10
-40 -6 -52 5 -23 8 -23 163 -25 377 -7 854 -3 860 7 10 16 2 66 -13 88 -8 12
-15 31 -15 43 0 19 -7 22 -67 27 -75 7 -854 7 -891 0z m938 -48 c0 -14 -7 -25
-17 -27 -9 -2 -218 -2 -465 0 -425 2 -448 3 -448 21 0 10 2 20 4 22 2 2 212 5
465 6 l461 1 0 -23z m25 -75 c0 -13 -62 -15 -487 -18 -484 -2 -488 -2 -488 18
0 20 4 20 488 18 425 -3 487 -5 487 -18z"/>
<path d="M3431 3715 c-11 -25 -45 -85 -75 -134 -121 -195 -162 -308 -153 -419
6 -77 43 -143 106 -187 38 -27 52 -30 128 -34 48 -2 104 2 125 8 118 36 190
191 159 343 -13 61 -82 203 -150 308 -23 36 -52 86 -64 113 -28 61 -50 61 -76
2z m65 -47 c9 -18 45 -80 80 -138 66 -110 107 -205 119 -277 16 -96 -40 -224
-113 -259 -45 -22 -153 -30 -208 -15 -75 20 -144 117 -144 203 0 86 57 231
143 364 25 40 55 90 66 113 12 23 26 41 31 41 5 0 17 -15 26 -32z"/>
<path d="M3275 3205 c-10 -73 14 -139 59 -166 37 -23 59 -24 76 -4 10 12 5 23
-29 62 -29 32 -47 66 -58 105 -21 74 -39 75 -48 3z m69 -107 c37 -50 38 -55 5
-38 -19 11 -49 59 -49 81 0 15 -1 16 44 -43z"/>
<path d="M7159 3438 c-1 -7 -2 -22 -3 -33 -1 -11 -3 -30 -4 -42 -1 -14 -10
-23 -24 -25 -20 -3 -23 -10 -26 -50 -3 -43 -6 -48 -27 -48 -17 0 -25 -6 -27
-22 -2 -18 -10 -23 -33 -23 -42 -1 -62 -13 -69 -39 -4 -17 -19 -27 -52 -38
-43 -13 -47 -18 -50 -50 -2 -23 -37 -97 -94 -197 -51 -89 -89 -169 -86 -176 4
-12 25 -15 91 -15 l85 0 -2 -32 -3 -33 179 0 179 0 -2 73 -2 72 30 0 30 0 3
-72 3 -73 125 -3 c157 -4 170 -1 170 38 0 22 5 30 18 30 16 0 19 -9 19 -73 1
-158 100 -257 258 -257 39 0 87 5 108 11 52 14 110 69 135 127 58 134 30 265
-102 482 -32 52 -71 120 -87 152 -16 32 -36 58 -44 58 -8 0 -23 -21 -35 -47
-11 -25 -50 -98 -87 -161 -62 -106 -67 -113 -81 -96 -31 41 -54 106 -48 138 4
18 3 47 0 64 -6 30 -9 32 -50 32 -40 0 -44 -2 -44 -25 0 -16 -6 -25 -16 -25
-10 0 -15 8 -14 23 1 12 2 39 1 60 -1 35 -3 37 -33 37 -72 0 -106 11 -112 36
-5 18 -13 24 -36 24 -27 0 -29 2 -32 48 -3 47 -3 47 -40 50 l-38 3 0 55 c0 41
-4 54 -15 54 -8 0 -15 -6 -16 -12z m79 -180 c3 -45 5 -47 35 -50 27 -2 33 -8
35 -30 3 -22 9 -28 27 -28 18 0 26 -7 31 -24 4 -17 14 -25 37 -29 18 -2 38 0
45 5 9 8 12 2 12 -25 0 -41 12 -52 58 -52 30 0 34 -4 55 -55 13 -30 51 -99 85
-154 34 -54 62 -102 62 -107 0 -5 -45 -9 -100 -9 l-99 0 6 -30 6 -30 -127 0
c-119 0 -126 1 -126 20 0 18 7 20 84 20 103 0 116 4 116 40 0 34 13 40 96 40
35 0 64 2 64 5 0 15 -100 203 -114 214 -19 16 -33 7 -18 -11 5 -7 30 -52 55
-100 l45 -88 -74 0 c-67 0 -74 -2 -75 -20 -1 -11 -2 -26 -3 -32 -1 -9 -27 -14
-88 -16 l-87 -3 -3 38 -3 38 -55 0 -55 0 -3 -38 c-4 -45 -24 -46 -32 -1 -4 23
-12 30 -35 34 -38 7 -46 36 -12 49 38 15 62 102 35 129 -12 12 -60 17 -69 7
-3 -2 -2 -26 1 -52 3 -30 0 -58 -8 -75 -21 -43 -12 -72 26 -83 24 -7 32 -15
32 -32 0 -22 -2 -23 -100 -23 -55 0 -100 4 -100 8 0 8 139 306 154 330 6 9 20
11 46 7 32 -5 40 -3 50 14 18 34 -3 61 -48 61 -41 0 -83 22 -64 34 6 3 13 2
17 -4 11 -17 25 0 25 29 0 25 5 29 33 34 45 7 50 1 42 -49 -5 -36 -3 -44 9
-44 9 0 16 -8 16 -19 0 -29 25 -44 62 -36 18 4 38 12 45 17 7 5 22 8 35 7 13
-2 25 1 28 6 3 6 -8 12 -25 13 -16 2 -35 12 -42 22 -9 12 -28 20 -56 22 l-42
3 0 60 c0 70 10 97 33 93 13 -2 18 -16 20 -50z m-78 13 c0 -17 -4 -33 -10 -36
-6 -4 -10 8 -10 29 0 20 5 36 10 36 6 0 10 -13 10 -29z m-186 -165 c-25 -54
-44 -66 -44 -26 0 18 59 95 66 87 3 -2 -7 -29 -22 -61z m479 34 c4 -17 0 -20
-28 -20 -35 0 -51 12 -40 30 3 6 19 10 34 10 20 0 30 -6 34 -20z m-413 -30 c0
-5 20 -10 45 -10 33 0 45 -4 45 -15 0 -11 -12 -15 -44 -15 -24 0 -48 -6 -53
-12 -5 -7 -40 -79 -78 -160 -37 -82 -72 -148 -77 -148 -4 0 -8 35 -8 78 0 66
4 87 28 133 23 47 31 54 60 57 30 3 32 6 32 42 0 27 6 42 18 49 22 13 32 14
32 1z m220 0 c0 -11 -40 -34 -47 -26 -3 3 -3 12 0 21 7 16 47 21 47 5z m677
-120 c31 -52 74 -133 97 -180 40 -82 41 -88 41 -186 0 -94 -2 -103 -30 -149
-38 -61 -85 -86 -174 -93 -81 -5 -129 8 -177 51 -51 44 -74 96 -74 165 0 64
16 97 43 87 13 -5 14 -11 7 -25 -18 -33 -12 -132 10 -167 22 -37 71 -66 103
-61 37 5 32 36 -16 87 -29 31 -50 64 -57 92 -6 24 -13 50 -15 57 -3 8 7 15 25
19 17 3 30 8 30 12 0 3 -14 26 -30 50 -17 24 -30 54 -30 65 0 12 21 57 46 101
25 44 62 109 82 144 41 75 31 81 119 -69z m-357 59 c0 -38 -24 -35 -28 4 -2
19 1 27 12 27 11 0 16 -10 16 -31z m-670 -10 c0 -11 -17 -46 -38 -77 -46 -68
-122 -207 -122 -222 0 -5 20 -10 45 -10 25 0 45 -4 45 -10 0 -6 -31 -10 -74
-10 l-74 0 44 83 c77 141 159 275 167 270 4 -2 7 -13 7 -24z m196 -104 c8 -19
-3 -65 -15 -65 -10 0 -23 59 -15 71 8 14 24 11 30 -6z m-266 -125 c0 -36 -2
-40 -25 -40 l-26 0 23 40 c13 22 24 40 26 40 1 0 2 -18 2 -40z m320 -150 c0
-19 -7 -20 -145 -20 -114 0 -145 3 -145 13 0 8 3 17 7 20 3 4 69 7 145 7 131
0 138 -1 138 -20z m579 -157 c34 -44 34 -51 0 -33 -19 11 -49 60 -49 82 0 14
3 11 49 -49z"/>
<path d="M7330 3063 c-70 -10 -73 -11 -65 -51 3 -20 8 -45 11 -54 4 -13 -4
-18 -41 -23 l-45 -7 0 -42 c0 -63 8 -69 74 -61 51 7 56 6 56 -12 0 -11 5 -34
11 -52 11 -30 13 -32 58 -29 l46 3 -3 56 -4 57 39 9 c32 7 39 13 41 37 2 16 1
40 -3 54 -6 24 -8 24 -60 18 l-55 -6 -6 40 c-8 50 -22 67 -54 63z m24 -35 c2
-7 8 -31 12 -53 l9 -40 55 0 c52 0 55 -1 55 -25 0 -22 -5 -26 -40 -30 l-40 -5
2 -57 c2 -58 2 -58 -28 -58 -16 0 -29 5 -29 13 0 6 -5 29 -11 51 l-11 38 -50
-6 c-54 -7 -68 0 -68 37 0 11 8 17 23 17 12 0 33 3 46 7 22 6 23 9 17 59 -6
54 -2 61 37 63 10 1 19 -5 21 -11z"/>
<path d="M2589 2878 c-17 -35 -53 -99 -80 -144 -26 -44 -67 -120 -91 -169 -36
-76 -42 -99 -46 -170 -5 -93 5 -134 48 -193 44 -61 100 -83 209 -83 70 0 99 5
128 20 74 38 118 104 134 202 18 109 -18 209 -159 442 -39 65 -74 127 -77 137
-11 36 -34 21 -66 -42z m110 -102 c130 -207 168 -308 158 -423 -6 -83 -44
-147 -107 -181 -40 -21 -55 -23 -137 -20 -85 4 -95 6 -130 34 -21 17 -48 48
-60 70 -39 68 -27 197 29 309 28 56 180 316 183 313 1 -2 30 -48 64 -102z"/>
<path d="M2446 2433 c-3 -4 -6 -36 -6 -73 0 -53 5 -74 23 -101 29 -44 66 -64
100 -55 35 8 34 26 -4 62 -41 39 -66 81 -74 126 -7 34 -25 54 -39 41z m68
-155 c20 -27 32 -48 26 -48 -20 0 -70 58 -70 81 0 12 1 20 3 18 1 -2 20 -25
41 -51z"/>
<path d="M7150 2460 c-17 -34 -48 -89 -68 -123 -165 -270 -193 -442 -94 -557
53 -62 116 -90 205 -90 129 0 219 64 251 179 37 131 6 241 -127 452 -36 57
-73 122 -83 144 -34 73 -45 72 -84 -5z m117 -117 c96 -160 132 -233 149 -295
18 -68 18 -99 -2 -169 -29 -103 -108 -159 -224 -159 -138 0 -230 89 -230 224
0 45 33 163 62 221 48 95 165 295 173 295 1 0 34 -53 72 -117z"/>
<path d="M7006 1988 c-13 -51 -6 -115 17 -149 29 -45 88 -74 117 -59 11 6 20
15 20 19 0 5 -20 30 -45 55 -31 33 -49 62 -60 101 -17 57 -38 71 -49 33z m72
-135 c18 -25 31 -47 29 -49 -9 -9 -56 38 -65 66 -15 42 -3 36 36 -17z"/>
<path d="M4787 2412 c-10 -10 -17 -22 -17 -26 0 -4 -40 -78 -90 -164 -100
-175 -130 -248 -137 -339 -7 -81 1 -122 36 -173 45 -67 98 -97 185 -105 145
-14 240 40 286 161 40 106 14 234 -80 394 -27 47 -73 127 -101 178 -28 50 -54
92 -58 92 -4 0 -15 -8 -24 -18z m118 -202 c102 -174 130 -248 129 -346 -1 -84
-27 -139 -87 -188 -38 -30 -41 -31 -147 -31 -123 0 -141 8 -194 83 -71 100
-35 260 110 489 18 29 45 76 59 104 17 32 30 48 36 42 5 -5 47 -74 94 -153z"/>
<path d="M4622 1918 c-7 -7 -12 -40 -12 -74 0 -47 5 -69 23 -94 28 -43 80 -74
107 -65 29 9 25 37 -11 71 -35 33 -63 84 -74 131 -8 38 -17 47 -33 31z m63
-151 c20 -27 33 -52 30 -55 -11 -10 -75 69 -75 91 0 11 2 18 4 16 2 -2 20 -26
41 -52z"/>
<path d="M3558 1943 c-16 -4 -18 -23 -18 -224 l0 -219 -45 0 -45 0 0 -40 0
-39 -72 -3 -73 -3 -3 -77 c-2 -69 -5 -78 -22 -78 -14 0 -20 8 -22 33 -3 32 -3
32 -65 35 l-63 3 0 -285 0 -285 181 -3 c130 -2 183 0 190 9 6 6 10 51 9 100
-1 48 -1 116 -1 151 l1 62 110 0 110 0 0 -160 0 -160 183 2 182 3 3 260 c1
143 0 270 -3 283 -5 21 -10 23 -63 20 -57 -3 -57 -3 -60 -36 -3 -28 -7 -33
-25 -30 -20 3 -22 10 -25 81 l-3 77 -64 0 -64 0 -3 43 c-2 34 -7 42 -23 43
-58 3 -55 -1 -55 79 l0 75 88 0 c152 0 162 13 76 87 l-57 48 63 57 c97 89 92
93 -125 94 -99 1 -188 0 -197 -3z m342 -32 c0 -6 -8 -16 -18 -23 -10 -7 -38
-30 -63 -51 l-44 -39 60 -54 60 -54 -136 0 -136 0 -7 -101 c-6 -90 -10 -106
-39 -150 -18 -27 -36 -49 -40 -49 -11 0 -86 -59 -114 -90 l-22 -25 0 45 c1 25
3 37 6 28 2 -10 11 -18 20 -18 12 0 14 7 10 30 -6 27 -4 30 18 30 22 0 25 4
25 39 0 40 0 40 43 43 l42 3 3 223 2 222 165 0 c97 0 165 -4 165 -9z m-216
-303 c3 -29 6 -69 6 -89 0 -38 12 -49 51 -49 16 0 19 -7 19 -41 l0 -41 36 6
c20 4 49 4 64 1 29 -6 29 -8 32 -83 l3 -77 50 0 c49 0 50 0 53 33 3 31 6 33
35 30 l32 -3 0 -205 0 -205 -152 -3 -152 -3 -3 113 -3 113 -137 3 -138 3 0
-161 0 -160 -160 0 -160 0 0 255 0 255 34 0 c32 0 35 -3 38 -32 3 -32 5 -33
51 -36 l47 -3 0 80 c0 76 1 81 21 81 19 0 21 -4 15 -39 -3 -23 -2 -42 4 -46 5
-3 10 -19 10 -35 0 -39 20 -49 39 -20 9 12 29 36 45 51 25 26 35 29 96 29 l67
0 6 68 c4 37 7 111 7 165 0 88 2 97 19 97 15 0 19 -10 25 -52z m-74 -223 l0
-35 -52 1 -53 1 38 10 c25 7 37 16 37 27 0 10 3 21 7 24 15 15 23 5 23 -28z
m455 -565 l0 -25 -152 -3 -153 -3 0 31 0 31 153 -3 152 -3 0 -25z"/>
<path d="M3627 1884 c-11 -11 -8 -124 3 -124 6 0 10 22 10 50 l0 49 93 3 c53
2 92 7 92 13 0 11 -187 20 -198 9z"/>
<path d="M3630 1735 c0 -12 16 -15 91 -15 68 0 90 3 87 13 -3 8 -33 13 -91 15
-73 2 -87 0 -87 -13z"/>
<path d="M4017 1183 c-13 -12 -7 -61 8 -67 12 -4 15 3 15 34 0 38 -8 49 -23
33z"/>
<path d="M9147 1803 c-3 -5 -8 -27 -12 -51 -6 -37 -12 -45 -48 -64 -61 -31
-101 -64 -132 -108 -27 -40 -28 -40 -91 -40 l-64 0 0 -43 c0 -48 13 -67 46
-67 14 0 33 -13 49 -35 15 -19 35 -37 46 -40 16 -6 19 -16 19 -81 0 -56 -3
-74 -14 -74 -7 0 -16 9 -19 20 -4 16 -14 20 -45 20 -61 0 -72 -7 -72 -47 0
-29 -5 -36 -35 -49 -34 -14 -35 -15 -35 -74 0 -59 1 -60 35 -74 32 -14 35 -19
35 -54 0 -36 3 -40 30 -46 29 -5 31 -8 25 -40 -10 -49 1 -76 31 -76 29 0 26
26 24 -275 -1 -135 -6 -241 -11 -243 -5 -2 -9 -19 -9 -38 0 -32 -2 -34 -34
-34 -45 0 -58 -18 -54 -77 l3 -48 400 0 400 0 0 60 0 60 -40 5 c-37 5 -40 8
-43 38 -2 17 -7 32 -13 32 -5 0 -9 55 -9 129 0 101 -3 131 -15 141 -13 10 -15
-6 -17 -127 l-3 -138 -256 -3 -257 -2 -5 42 c-2 24 -5 144 -6 267 -1 123 -4
228 -7 233 -3 4 -14 8 -25 8 -33 0 -25 43 11 57 21 8 30 18 30 33 0 41 65 115
125 144 60 28 90 34 59 12 -29 -22 -11 -29 73 -29 113 0 104 25 -17 47 -14 3
-1 3 29 1 97 -8 224 -90 237 -154 8 -40 19 -56 42 -59 19 -3 36 -35 24 -46 -3
-3 -16 -6 -29 -6 -23 0 -23 -1 -23 -116 0 -102 2 -115 15 -104 11 9 15 34 15
101 l0 88 28 3 c26 3 27 5 27 60 0 56 0 57 30 60 28 3 30 6 33 45 3 36 7 43
33 52 28 10 29 12 29 71 0 59 -1 61 -30 71 -25 9 -30 16 -30 43 0 43 -16 56
-67 56 -32 0 -46 -5 -55 -20 -25 -40 -38 -23 -38 49 0 68 0 69 45 114 29 29
58 47 80 51 34 7 35 8 35 56 l0 50 -62 0 c-62 0 -63 1 -92 41 -27 39 -124 111
-167 124 -14 5 -19 16 -19 44 0 20 -5 42 -12 49 -13 13 -124 17 -131 5z m108
-43 c9 -30 -2 -40 -46 -40 -37 0 -39 2 -39 30 0 28 2 30 39 30 31 0 41 -4 46
-20z m20 -85 c0 -5 12 -26 27 -45 14 -19 28 -46 30 -60 l3 -25 -117 -3 c-117
-3 -118 -2 -118 20 0 25 45 98 60 98 6 0 9 3 9 8 -1 4 -1 11 0 15 2 12 106 4
106 -8z m-199 -80 c-20 -53 -22 -55 -58 -55 -23 0 -38 5 -38 12 0 16 87 98
104 98 10 0 9 -13 -8 -55z m313 28 c37 -27 70 -63 71 -75 0 -5 -19 -8 -43 -8
-42 0 -43 1 -55 43 -7 23 -15 48 -18 55 -9 19 6 14 45 -15z m209 -135 l-3 -23
-380 0 -380 0 -3 23 -3 22 386 0 386 0 -3 -22z m-108 -83 l-23 -25 -255 0
c-224 0 -258 2 -274 17 -10 9 -18 20 -18 25 0 4 134 8 297 8 l296 0 -23 -25z
m-52 -192 c1 -73 0 -133 -2 -133 -3 0 -27 14 -53 30 -60 39 -102 50 -183 50
-64 0 -157 -32 -174 -59 -4 -6 -14 -11 -22 -11 -11 0 -14 21 -14 108 0 59 3
117 6 130 l6 22 217 -2 216 -3 3 -132z m-540 -145 l-3 -133 -27 -3 -28 -3 0
135 0 136 30 0 31 0 -3 -132z m700 -5 l3 -133 -30 0 c-36 0 -41 15 -41 135 0
119 5 137 39 133 l26 -3 3 -132z m-630 60 c-2 -27 -8 -39 -20 -41 -15 -3 -18
4 -18 37 0 35 3 41 21 41 17 0 20 -5 17 -37z m536 -3 c0 -25 -5 -36 -17 -38
-14 -3 -17 5 -17 38 0 33 3 41 17 38 12 -2 17 -13 17 -38z m-192 -4 c20 -7 58
-29 85 -49 36 -26 55 -34 75 -30 22 4 27 1 33 -25 3 -16 3 -42 -1 -57 l-7 -27
-21 38 c-12 21 -43 55 -69 74 -152 115 -339 84 -455 -75 l-21 -30 -1 54 0 54
29 -6 c19 -4 33 -1 41 8 58 69 216 105 312 71z m348 -47 c0 -32 -3 -39 -20
-39 -17 0 -20 7 -20 38 0 43 6 53 26 45 9 -3 14 -20 14 -44z m-850 1 c0 -33
-3 -40 -20 -40 -17 0 -20 7 -20 40 0 33 3 40 20 40 17 0 20 -7 20 -40z m659
-836 c21 -5 31 -12 31 -25 0 -18 -13 -19 -285 -19 -277 0 -285 1 -285 20 0 19
8 20 213 23 116 1 231 3 253 5 23 1 56 -1 73 -4z m119 -106 l-3 -33 -370 0
-370 0 -3 33 -3 32 376 0 376 0 -3 -32z"/>
<path d="M9023 802 c-9 -6 -13 -70 -13 -242 l-1 -235 30 -8 c20 -5 39 -3 52 4
21 11 22 14 17 241 -5 243 -6 248 -53 248 -11 0 -25 -4 -32 -8z m47 -242 c0
-180 -2 -210 -15 -210 -13 0 -15 30 -15 210 0 180 2 210 15 210 13 0 15 -30
15 -210z"/>
<path d="M9170 559 l0 -240 48 3 47 3 3 45 c2 25 1 132 -3 238 l-7 192 -44 0
-44 0 0 -241z m60 1 c0 -180 -2 -210 -15 -210 -13 0 -15 30 -15 210 0 180 2
210 15 210 13 0 15 -30 15 -210z"/>
<path d="M9329 798 c0 -2 -3 -105 -6 -231 -3 -154 -2 -231 5 -240 10 -11 30
-13 80 -8 9 1 12 56 12 241 l0 240 -45 0 c-25 0 -45 -1 -46 -2z m61 -238 c0
-180 -2 -210 -15 -210 -13 0 -15 30 -15 210 0 180 2 210 15 210 13 0 15 -30
15 -210z"/>
</g>
</svg>
